<svg id="custom-unit-circle" x="0px" y="0px"
   width="510px" height="510px" viewBox="0 0 510 510">

<path id="section-1" ng-click="sectionClicked($event)" data-angle="30" d="M505,254.995H255l217.83-122.76C493.31,168.495,505,210.385,505,254.995z"/>
<path id="section-2" ng-click="sectionClicked($event)" data-angle="45" d="M472.83,132.235L255,254.995h-0.99l179.11-175.42C448.56,95.245,461.939,112.945,472.83,132.235z"/>
<path id="section-3" ng-click="sectionClicked($event)" data-angle="60" d="M433.12,79.575l-179.11,175.42L381.53,39.335C400.47,50.475,417.81,64.025,433.12,79.575z"/>
<path id="section-4" ng-click="sectionClicked($event)" data-angle="90" d="M381.53,39.335L254.01,254.995V5.005c0.33-0.01,0.66-0.01,0.99-0.01C301.17,4.995,344.42,17.515,381.53,39.335z
  "/>
<path id="section-5" ng-click="sectionClicked($event)" data-angle="120" d="M254.01,5.005v249c-22.34-42.22-46.34-81.22-69.34-124.22c-17.88-31.78-34.77-61.59-52.75-92.44
  C167.98,16.905,209.63,5.175,254.01,5.005z"/>
<path id="section-6" ng-click="sectionClicked($event)" data-angle="135" d="M254.01,254.005v0.99H254l-0.01-0.01c-22.33-24.21-45.32-46.2-68.32-70.2l-62-62
  c-14.88-15.87-29.75-29.77-44.12-45.88c15.59-15.36,33.19-28.69,52.37-39.56c17.98,30.85,34.87,60.66,52.75,92.44
  C207.67,172.785,231.67,211.785,254.01,254.005z"/>
<path id="section-7" ng-click="sectionClicked($event)" data-angle="150" d="M253.99,254.985c-71.15-43.1-142.95-83.99-214.47-126.82c11.09-18.8,24.57-36.03,40.03-51.26
  c14.37,16.11,29.24,30.01,44.12,45.88l62,62C208.67,208.785,231.66,230.775,253.99,254.985z"/>
<path id="section-8" ng-click="sectionClicked($event)" data-angle="180" d="M254,254.995H5c0-46.29,12.58-89.64,34.52-126.83c71.52,42.83,143.32,83.72,214.47,126.82L254,254.995z"/>
<path id="section-9" ng-click="sectionClicked($event)" data-angle="210" d="M253.01,254.995c-30.35,16.79-59.34,33.79-89.34,50.79l-39,21c-29.76,17.85-59.51,32.76-87.99,50.1
  C16.5,340.825,5,299.255,5,254.995H253.01z"/>
<path id="section-10" ng-click="sectionClicked($event)" data-angle="225" d="M253.51,255.495c-0.16,0.17-0.33,0.34-0.5,0.5v0.01c-33.02,33.42-66.68,65.12-100.34,98.78c-15,13-27,27-42,40
  c-11.82,11.82-23.65,22.68-34.78,34.62c-15.25-15.66-28.46-33.3-39.21-52.521c28.48-17.34,58.23-32.25,87.99-50.1l39-21
  c30-17,58.99-34,89.34-50.79h0.01l0.011,0.01C253.189,255.165,253.35,255.335,253.51,255.495z"/>
<path id="section-11" ng-click="sectionClicked($event)" data-angle="240" d="M253.21,256.345L127,469.775c-18.77-11.2-35.95-24.8-51.11-40.37c11.13-11.94,22.96-22.8,34.78-34.62
  c15-13,27-27,42-40c33.66-33.66,67.32-65.36,100.34-98.78L253.21,256.345z"/>
<path id="section-12" ng-click="sectionClicked($event)" data-angle="270" d="M254.01,257.766v247.22c-46.41-0.181-89.83-13-127.01-35.21l126.21-213.431L254.01,257.766z"/>
<path id="section-13" ng-click="sectionClicked($event)" data-angle="300" d="M375.83,473.905c-35.811,19.81-77.01,31.09-120.83,31.09c-0.33,0-0.66,0-0.99-0.01v-247.22L375.83,473.905z"/>
<path id="section-14" ng-click="sectionClicked($event)" data-angle="315" d="M428.91,434.595c-15.82,15.32-33.66,28.57-53.08,39.311l-121.82-216.14v-1.761
  C312.18,315.325,369.71,375.815,428.91,434.595z"/>
<path id="section-15" ng-click="sectionClicked($event)" data-angle="330" d="M469.71,383.135c-11.32,18.92-25.06,36.221-40.8,51.46c-59.2-58.779-116.73-119.27-174.9-178.59v-0.42
  c6.141,3.63,12.26,7.26,18.391,10.88c15.789,9.33,31.579,18.67,47.359,28c19.71,11.65,39.41,23.311,59.12,34.96
  c18.21,10.771,36.43,21.54,54.65,32.32c11.33,6.69,22.659,13.39,33.979,20.09C468.24,382.266,468.97,382.705,469.71,383.135z"/>
<path id="section-16" ng-click="sectionClicked($event)" data-angle="360" d="M505,254.995c0,46.84-12.88,90.67-35.29,128.14c-0.74-0.43-1.47-0.869-2.2-1.3
  c-11.32-6.7-22.649-13.399-33.979-20.09c-18.221-10.78-36.44-21.55-54.65-32.32c-19.71-11.649-39.41-23.31-59.12-34.96
  c-15.78-9.33-31.57-18.67-47.359-28c-6.131-3.62-12.25-7.25-18.391-10.88v-0.59H505z"/>

</svg>
